<?xml version="1.0" encoding="utf-8"?>
<!-- Generator: Adobe Illustrator 21.0.0, SVG Export Plug-In . SVG Version: 6.00 Build 0)  -->
<svg version="1.1" id="图层_1" xmlns="http://www.w3.org/2000/svg" xmlns:xlink="http://www.w3.org/1999/xlink" x="0px" y="0px"
	 viewBox="0 0 100 100.3" style="enable-background:new 0 0 100 100.3;" xml:space="preserve">
<g>
	<polygon points="52.7,29.1 47.3,29.1 47.3,47.8 28.6,47.8 28.6,53.2 47.3,53.2 47.3,71.9 52.7,71.9 52.7,53.2 71.4,53.2 71.4,47.8 
		52.7,47.8 	"/>
	<path d="M50,3C23.8,3,2.5,24.3,2.5,50.5S23.8,98,50,98s47.5-21.3,47.5-47.5S76.2,3,50,3z M50,92.7c-23.3,0-42.2-18.9-42.2-42.2
		S26.7,8.3,50,8.3s42.2,18.9,42.2,42.2S73.3,92.7,50,92.7z"/>
</g>
</svg>
