<?xml version="1.0" encoding="utf-8"?>
<!-- Generator: Adobe Illustrator 21.0.0, SVG Export Plug-In . SVG Version: 6.00 Build 0)  -->
<svg version="1.1" id="图层_1" xmlns="http://www.w3.org/2000/svg" xmlns:xlink="http://www.w3.org/1999/xlink" x="0px" y="0px"
	 viewBox="0 0 90 90" style="enable-background:new 0 0 90 90;" xml:space="preserve">
<g>
	<g>
		<path d="M64,26c-1.2-1.2-3.2-1.2-4.4,0L45,40.6L30.5,26c-1.2-1.2-3.2-1.2-4.4,0c-1.2,1.2-1.2,3.2,0,4.4L40.6,45L26,59.5
			c-1.2,1.2-1.2,3.2,0,4.4c0.6,0.6,1.4,0.9,2.2,0.9s1.6-0.3,2.2-0.9L45,49.4L59.5,64c0.6,0.6,1.4,0.9,2.2,0.9s1.6-0.3,2.2-0.9
			c1.2-1.2,1.2-3.2,0-4.4L49.4,45L64,30.5C65.2,29.2,65.2,27.3,64,26z"/>
		<path d="M45,0C20.1,0,0,20.1,0,45s20.1,45,45,45s45-20.1,45-45S69.9,0,45,0z M72.4,72.4c-7.3,7.3-17,11.3-27.4,11.3
			c-10.3,0-20.1-4-27.4-11.3S6.3,55.4,6.3,45c0-10.3,4-20.1,11.3-27.4S34.6,6.3,45,6.3c10.3,0,20.1,4,27.4,11.3s11.3,17,11.3,27.4
			C83.7,55.3,79.7,65.1,72.4,72.4z"/>
	</g>
</g>
</svg>
