<svg xmlns="http://www.w3.org/2000/svg" data-name="Pause button" viewBox="0 0 52 65" x="0px" y="0px"><title>pause</title><path d="M192,6a26,26,0,1,0,26,26A26,26,0,0,0,192,6Zm0,48a22,22,0,1,1,22-22A22,22,0,0,1,192,54Zm-2-30V40a1,1,0,0,1-1,1h-4a1,1,0,0,1-1-1V24a1,1,0,0,1,1-1h4A1,1,0,0,1,190,24Zm10,0V40a1,1,0,0,1-1,1h-4a1,1,0,0,1-1-1V24a1,1,0,0,1,1-1h4A1,1,0,0,1,200,24Z" transform="translate(-166 -6)"/><text x="0" y="67" fill="#000000" font-size="5px" font-weight="bold" font-family="'Helvetica Neue', Helvetica, Arial-Unicode, Arial, Sans-serif">Created by Ismael Ruiz</text><text x="0" y="72" fill="#000000" font-size="5px" font-weight="bold" font-family="'Helvetica Neue', Helvetica, Arial-Unicode, Arial, Sans-serif">from the Noun Project</text></svg>