<?xml version="1.0" encoding="utf-8"?>
<!-- Generator: Adobe Illustrator 21.0.0, SVG Export Plug-In . SVG Version: 6.00 Build 0)  -->
<svg version="1.1" id="图层_1" xmlns="http://www.w3.org/2000/svg" xmlns:xlink="http://www.w3.org/1999/xlink" x="0px" y="0px"
	 viewBox="0 0 52 52" style="enable-background:new 0 0 52 52;" xml:space="preserve">
<title>pause</title>
<path d="M26,0C11.6,0,0,11.6,0,26s11.6,26,26,26s26-11.6,26-26S40.4,0,26,0z M26,48C13.8,48,4,38.2,4,26S13.8,4,26,4s22,9.8,22,22
	S38.2,48,26,48z M24,18v16c0,0.6-0.4,1-1,1h-4c-0.6,0-1-0.4-1-1V18c0-0.6,0.4-1,1-1h4C23.6,17,24,17.4,24,18z M34,18v16
	c0,0.6-0.4,1-1,1h-4c-0.6,0-1-0.4-1-1V18c0-0.6,0.4-1,1-1h4C33.6,17,34,17.4,34,18z"/>
</svg>
