<?xml version="1.0" encoding="utf-8"?>
<!-- Generator: Adobe Illustrator 21.0.0, SVG Export Plug-In . SVG Version: 6.00 Build 0)  -->
<svg version="1.1" id="图层_1" xmlns="http://www.w3.org/2000/svg" xmlns:xlink="http://www.w3.org/1999/xlink" x="0px" y="0px"
	 viewBox="0 0 52 52" style="enable-background:new 0 0 52 52;" xml:space="preserve">
<title>play</title>
<path d="M36.2,27l-16.5,9.5c-0.4,0.4-1,0.5-1.4,0.1c-0.3-0.3-0.4-0.7-0.3-1.1v-19c-0.2-0.5,0.1-1.1,0.6-1.3c0.4-0.2,0.8,0,1.1,0.3
	L36.2,25c0.6,0.3,0.8,0.9,0.5,1.5C36.6,26.7,36.4,26.9,36.2,27z M52,26c0,14.4-11.6,26-26,26S0,40.4,0,26S11.6,0,26,0S52,11.6,52,26
	z M48,26c0-12.2-9.8-22-22-22S4,13.8,4,26s9.8,22,22,22S48,38.2,48,26z"/>
</svg>
