<svg xmlns="http://www.w3.org/2000/svg" data-name="Play button" viewBox="0 0 52 65" x="0px" y="0px"><title>play</title><path d="M42.2,33L25.7,42.5a1,1,0,0,1-1.7-1V22.5a1,1,0,0,1,1.7-1L42.2,31A1.1,1.1,0,0,1,42.2,33ZM58,32A26,26,0,1,1,32,6,26,26,0,0,1,58,32Zm-4,0A22,22,0,1,0,32,54,22,22,0,0,0,54,32Z" transform="translate(-6 -6)"/><text x="0" y="67" fill="#000000" font-size="5px" font-weight="bold" font-family="'Helvetica Neue', Helvetica, Arial-Unicode, Arial, Sans-serif">Created by Ismael Ruiz</text><text x="0" y="72" fill="#000000" font-size="5px" font-weight="bold" font-family="'Helvetica Neue', Helvetica, Arial-Unicode, Arial, Sans-serif">from the Noun Project</text></svg>