<?xml version="1.0" encoding="utf-8"?>
<!-- Generator: Adobe Illustrator 21.0.0, SVG Export Plug-In . SVG Version: 6.00 Build 0)  -->
<svg version="1.1" id="图层_1" xmlns="http://www.w3.org/2000/svg" xmlns:xlink="http://www.w3.org/1999/xlink" x="0px" y="0px"
	 viewBox="0 0 62.2 62.2" style="enable-background:new 0 0 62.2 62.2;" xml:space="preserve">
<g>
	<path d="M31.1,0C13.9,0,0,13.9,0,31.1s14,31.1,31.1,31.1s31.1-14,31.1-31.1S48.3,0,31.1,0z M31.1,59.2C15.6,59.2,3,46.6,3,31.1
		S15.6,3,31.1,3s28.1,12.6,28.1,28.1S46.6,59.2,31.1,59.2z"/>
	<path d="M39.7,20.5H22.5c-1.1,0-2,0.9-2,2v17.1c0,1.1,0.9,2,2,2h17.1c1.1,0,2-0.9,2-2V22.5C41.7,21.4,40.8,20.5,39.7,20.5z"/>
</g>
</svg>
