<svg xmlns="http://www.w3.org/2000/svg" xmlns:xlink="http://www.w3.org/1999/xlink" version="1.1" x="0px" y="0px" viewBox="0 0 100 125" style="enable-background:new 0 0 100 100;" xml:space="preserve"><g><path d="M59.5732422,59.6508789c0.390625,0.3930664,0.9038086,0.5893555,1.4174805,0.5893555   c0.5102539,0,1.0205078-0.1938477,1.4106445-0.5825195C64.9868164,57.0849609,66.4106445,53.6552734,66.4106445,50   c0-3.6494141-1.4189453-7.078125-3.9956055-9.6542969c-0.78125-0.7802734-2.0473633-0.7807617-2.8286133,0.0004883   c-0.7807617,0.78125-0.7807617,2.0473633,0.0004883,2.8286133C61.4077148,44.9951172,62.4106445,47.4189453,62.4106445,50   c0,2.5830078-1.0053711,5.0058594-2.8305664,6.8227539C58.796875,57.6015625,58.7939453,58.8681641,59.5732422,59.6508789z"/><path d="M72.5009766,50c0,5.2666016-2.0546875,10.2270508-5.7861328,13.9672852   c-0.7797852,0.7822266-0.7783203,2.0483398,0.003418,2.8286133c0.390625,0.3891602,0.9013672,0.5839844,1.4125977,0.5839844   c0.5126953,0,1.0253906-0.1958008,1.4160156-0.5874023C74.03125,62.296875,76.5009766,56.3330078,76.5009766,50   S74.03125,37.703125,69.546875,33.2075195c-0.7797852-0.7817383-2.0458984-0.7832031-2.8286133-0.003418   c-0.7817383,0.7802734-0.7832031,2.0463867-0.003418,2.8286133C70.4462891,39.7729492,72.5009766,44.7333984,72.5009766,50z"/><path d="M83.0009766,50c0,8.0844727-3.1474609,15.6787109-8.8632813,21.3842773   c-0.7817383,0.7802734-0.7827148,2.046875-0.0024414,2.8286133c0.390625,0.3911133,0.902832,0.5869141,1.4155273,0.5869141   c0.5112305,0,1.0224609-0.1948242,1.4130859-0.5844727C83.4365234,67.7539063,87.0009766,59.1542969,87.0009766,50   c0-9.1538086-3.5644531-17.753418-10.0371094-24.215332c-0.7822266-0.7797852-2.0483398-0.7792969-2.8286133,0.0024414   s-0.7792969,2.0478516,0.0024414,2.8286133C79.8535156,34.3217773,83.0009766,41.9160156,83.0009766,50z"/><path d="M17.6958008,61.6599731h12.7218628c0.5437622,0,1.0748901,0.1643677,1.5235596,0.4716187l16.5876465,11.3583374   c1.7896729,1.2254639,4.2202759-0.0560303,4.2202759-2.2250366V28.7350464c0-2.1690063-2.430603-3.4505005-4.2202759-2.2250366   L31.9412231,37.8683472c-0.4486694,0.307251-0.9797974,0.4716797-1.5235596,0.4716797H17.6958008   c-1.4893188,0-2.6966553,1.2073364-2.6966553,2.6966553v17.9265747   C14.9991455,60.4526367,16.2064819,61.6599731,17.6958008,61.6599731z"/></g><text x="0" y="115" fill="#000000" font-size="5px" font-weight="bold" font-family="'Helvetica Neue', Helvetica, Arial-Unicode, Arial, Sans-serif">Created by Rudez Studio</text><text x="0" y="120" fill="#000000" font-size="5px" font-weight="bold" font-family="'Helvetica Neue', Helvetica, Arial-Unicode, Arial, Sans-serif">from the Noun Project</text></svg>