<?xml version="1.0" encoding="utf-8"?>
<!-- Generator: Adobe Illustrator 21.0.0, SVG Export Plug-In . SVG Version: 6.00 Build 0)  -->
<svg version="1.1" id="图层_1" xmlns="http://www.w3.org/2000/svg" xmlns:xlink="http://www.w3.org/1999/xlink" x="0px" y="0px"
	 viewBox="0 0 100 100" style="enable-background:new 0 0 100 100;" xml:space="preserve">
<g>
	<path d="M59.6,59.7c0.4,0.4,0.9,0.6,1.4,0.6c0.5,0,1-0.2,1.4-0.6c2.6-2.6,4-6,4-9.7c0-3.6-1.4-7.1-4-9.7c-0.8-0.8-2-0.8-2.8,0
		c-0.8,0.8-0.8,2,0,2.8c1.8,1.8,2.8,4.2,2.8,6.8c0,2.6-1,5-2.8,6.8C58.8,57.6,58.8,58.9,59.6,59.7z"/>
	<path d="M72.5,50c0,5.3-2.1,10.2-5.8,14c-0.8,0.8-0.8,2,0,2.8c0.4,0.4,0.9,0.6,1.4,0.6c0.5,0,1-0.2,1.4-0.6c4.5-4.5,7-10.5,7-16.8
		s-2.5-12.3-7-16.8c-0.8-0.8-2-0.8-2.8,0c-0.8,0.8-0.8,2,0,2.8C70.4,39.8,72.5,44.7,72.5,50z"/>
	<path d="M83,50c0,8.1-3.1,15.7-8.9,21.4c-0.8,0.8-0.8,2,0,2.8c0.4,0.4,0.9,0.6,1.4,0.6c0.5,0,1-0.2,1.4-0.6
		c6.5-6.5,10-15.1,10-24.2c0-9.2-3.6-17.8-10-24.2c-0.8-0.8-2-0.8-2.8,0s-0.8,2,0,2.8C79.9,34.3,83,41.9,83,50z"/>
	<path d="M17.7,61.7h12.7c0.5,0,1.1,0.2,1.5,0.5l16.6,11.4c1.8,1.2,4.2-0.1,4.2-2.2V28.7c0-2.2-2.4-3.5-4.2-2.2L31.9,37.9
		c-0.4,0.3-1,0.5-1.5,0.5H17.7c-1.5,0-2.7,1.2-2.7,2.7V59C15,60.5,16.2,61.7,17.7,61.7z"/>
</g>
</svg>
