<?xml version="1.0" encoding="utf-8"?>
<!-- Generator: Adobe Illustrator 21.0.0, SVG Export Plug-In . SVG Version: 6.00 Build 0)  -->
<svg version="1.1" id="图层_1" xmlns="http://www.w3.org/2000/svg" xmlns:xlink="http://www.w3.org/1999/xlink" x="0px" y="0px"
	 viewBox="0 0 100 100" style="enable-background:new 0 0 100 100;" xml:space="preserve">
<g>
	<path d="M64.8,59.7c0.4,0.4,0.9,0.6,1.4,0.6c0.5,0,1-0.2,1.4-0.6c2.6-2.6,4-6,4-9.7c0-3.6-1.4-7.1-4-9.7c-0.8-0.8-2-0.8-2.8,0
		c-0.8,0.8-0.8,2,0,2.8c1.8,1.8,2.8,4.2,2.8,6.8c0,2.6-1,5-2.8,6.8C64,57.6,64,58.9,64.8,59.7z"/>
	<path d="M77.8,50c0,5.3-2.1,10.2-5.8,14c-0.8,0.8-0.8,2,0,2.8c0.4,0.4,0.9,0.6,1.4,0.6c0.5,0,1-0.2,1.4-0.6c4.5-4.5,7-10.5,7-16.8
		s-2.5-12.3-7-16.8c-0.8-0.8-2-0.8-2.8,0c-0.8,0.8-0.8,2,0,2.8C75.7,39.8,77.8,44.7,77.8,50z"/>
	<path d="M22.9,61.7h12.7c0.5,0,1.1,0.2,1.5,0.5l16.6,11.4c1.8,1.2,4.2-0.1,4.2-2.2V28.7c0-2.2-2.4-3.5-4.2-2.2L37.2,37.9
		c-0.4,0.3-1,0.5-1.5,0.5H22.9c-1.5,0-2.7,1.2-2.7,2.7V59C20.2,60.5,21.5,61.7,22.9,61.7z"/>
</g>
</svg>
