<svg xmlns="http://www.w3.org/2000/svg" xmlns:xlink="http://www.w3.org/1999/xlink" version="1.1" x="0px" y="0px" viewBox="0 0 100 125" style="enable-background:new 0 0 100 100;" xml:space="preserve"><g><path d="M69.8691406,59.6513672c0.390625,0.3925781,0.9033203,0.5888672,1.4169922,0.5888672   c0.5107422,0,1.0205078-0.1943359,1.4111328-0.5825195C75.2822266,57.0839844,76.7060547,53.6538086,76.7060547,50   c0-3.6484375-1.4189453-7.0771484-3.9960938-9.6538086c-0.78125-0.78125-2.046875-0.78125-2.828125,0   c-0.78125,0.7807617-0.78125,2.0473633,0,2.828125C71.703125,44.9956055,72.7060547,47.4199219,72.7060547,50   c0,2.5820313-1.0058594,5.0053711-2.8310547,6.8227539C69.0917969,57.6020508,69.0898438,58.8686523,69.8691406,59.6513672z"/><path d="M27.9907837,61.6599731h12.7218628c0.5437622,0,1.0748901,0.1643677,1.5235596,0.4716187l16.5876465,11.3583374   c1.7896729,1.2254639,4.2202759-0.0560303,4.2202759-2.2250366V28.7350464c0-2.1690063-2.430603-3.4505005-4.2202759-2.2250366   L42.2362061,37.8683472c-0.4486694,0.307251-0.9797974,0.4716797-1.5235596,0.4716797H27.9907837   c-1.4893188,0-2.6966553,1.2073364-2.6966553,2.6966553v17.9265747   C25.2941284,60.4526367,26.5014648,61.6599731,27.9907837,61.6599731z"/></g><text x="0" y="115" fill="#000000" font-size="5px" font-weight="bold" font-family="'Helvetica Neue', Helvetica, Arial-Unicode, Arial, Sans-serif">Created by Rudez Studio</text><text x="0" y="120" fill="#000000" font-size="5px" font-weight="bold" font-family="'Helvetica Neue', Helvetica, Arial-Unicode, Arial, Sans-serif">from the Noun Project</text></svg>