<?xml version="1.0" encoding="utf-8"?>
<!-- Generator: Adobe Illustrator 21.0.0, SVG Export Plug-In . SVG Version: 6.00 Build 0)  -->
<svg version="1.1" id="图层_1" xmlns="http://www.w3.org/2000/svg" xmlns:xlink="http://www.w3.org/1999/xlink" x="0px" y="0px"
	 viewBox="0 0 100 100" style="enable-background:new 0 0 100 100;" xml:space="preserve">
<g>
	<path d="M69.9,59.7c0.4,0.4,0.9,0.6,1.4,0.6c0.5,0,1-0.2,1.4-0.6c2.6-2.6,4-6,4-9.7c0-3.6-1.4-7.1-4-9.7c-0.8-0.8-2-0.8-2.8,0
		c-0.8,0.8-0.8,2,0,2.8c1.8,1.8,2.8,4.2,2.8,6.8c0,2.6-1,5-2.8,6.8C69.1,57.6,69.1,58.9,69.9,59.7z"/>
	<path d="M28,61.7h12.7c0.5,0,1.1,0.2,1.5,0.5l16.6,11.4c1.8,1.2,4.2-0.1,4.2-2.2V28.7c0-2.2-2.4-3.5-4.2-2.2L42.2,37.9
		c-0.4,0.3-1,0.5-1.5,0.5H28c-1.5,0-2.7,1.2-2.7,2.7V59C25.3,60.5,26.5,61.7,28,61.7z"/>
</g>
</svg>
