<svg xmlns="http://www.w3.org/2000/svg" xmlns:xlink="http://www.w3.org/1999/xlink" version="1.1" x="0px" y="0px" viewBox="0 0 100 125" style="enable-background:new 0 0 100 100;" xml:space="preserve"><g><path d="M20.1854248,61.6599731h12.7218018c0.5437622,0,1.0748901,0.1643677,1.5235596,0.4716187l16.5877075,11.3583374   c1.7896729,1.2254639,4.2202759-0.0560303,4.2202759-2.2250366V28.7350464c0-2.1690063-2.430603-3.4505005-4.2202759-2.2250366   L34.4307861,37.8683472c-0.4486694,0.307251-0.9797974,0.4716797-1.5235596,0.4716797H20.1854248   c-1.4893188,0-2.6966553,1.2073364-2.6966553,2.6966553v17.9265747   C17.4887695,60.4526367,18.696106,61.6599731,20.1854248,61.6599731z"/><path d="M63.8017578,58.8339844c0.390625,0.390625,0.9023438,0.5859375,1.4140625,0.5859375   s1.0234375-0.1953125,1.4140625-0.5859375l7.2338867-7.2334595l7.2338867,7.2334595   c0.390625,0.390625,0.9023438,0.5859375,1.4140625,0.5859375s1.0234375-0.1953125,1.4140625-0.5859375   c0.78125-0.7807617,0.78125-2.0473633,0-2.828125l-7.2338257-7.2333984l7.2338257-7.2333984   c0.78125-0.7807617,0.78125-2.0473633,0-2.828125c-0.78125-0.78125-2.046875-0.78125-2.828125,0l-7.2338867,7.2334595   l-7.2338867-7.2334595c-0.78125-0.78125-2.046875-0.78125-2.828125,0c-0.78125,0.7807617-0.78125,2.0473633,0,2.828125   l7.2338257,7.2333984l-7.2338257,7.2333984C63.0205078,56.7866211,63.0205078,58.0532227,63.8017578,58.8339844z"/></g><text x="0" y="115" fill="#000000" font-size="5px" font-weight="bold" font-family="'Helvetica Neue', Helvetica, Arial-Unicode, Arial, Sans-serif">Created by Rudez Studio</text><text x="0" y="120" fill="#000000" font-size="5px" font-weight="bold" font-family="'Helvetica Neue', Helvetica, Arial-Unicode, Arial, Sans-serif">from the Noun Project</text></svg>