<?xml version="1.0" encoding="utf-8"?>
<!-- Generator: Adobe Illustrator 21.0.0, SVG Export Plug-In . SVG Version: 6.00 Build 0)  -->
<svg version="1.1" id="图层_1" xmlns="http://www.w3.org/2000/svg" xmlns:xlink="http://www.w3.org/1999/xlink" x="0px" y="0px"
	 viewBox="0 0 100 100" style="enable-background:new 0 0 100 100;" xml:space="preserve">
<g>
	<path d="M20.2,61.7h12.7c0.5,0,1.1,0.2,1.5,0.5L51,73.5c1.8,1.2,4.2-0.1,4.2-2.2V28.7c0-2.2-2.4-3.5-4.2-2.2L34.4,37.9
		c-0.4,0.3-1,0.5-1.5,0.5H20.2c-1.5,0-2.7,1.2-2.7,2.7V59C17.5,60.5,18.7,61.7,20.2,61.7z"/>
	<path d="M63.8,58.8c0.4,0.4,0.9,0.6,1.4,0.6s1-0.2,1.4-0.6l7.2-7.2l7.2,7.2c0.4,0.4,0.9,0.6,1.4,0.6s1-0.2,1.4-0.6
		c0.8-0.8,0.8-2,0-2.8l-7.2-7.2l7.2-7.2c0.8-0.8,0.8-2,0-2.8c-0.8-0.8-2-0.8-2.8,0l-7.2,7.2l-7.2-7.2c-0.8-0.8-2-0.8-2.8,0
		c-0.8,0.8-0.8,2,0,2.8l7.2,7.2L63.8,56C63,56.8,63,58.1,63.8,58.8z"/>
</g>
</svg>
