<?xml version="1.0" encoding="utf-8"?>
<!-- Generator: Adobe Illustrator 21.0.0, SVG Export Plug-In . SVG Version: 6.00 Build 0)  -->
<svg version="1.1" id="图层_1" xmlns="http://www.w3.org/2000/svg" xmlns:xlink="http://www.w3.org/1999/xlink" x="0px" y="0px"
	 viewBox="0 0 100 100" style="enable-background:new 0 0 100 100;" xml:space="preserve">
<polygon points="23.8,65.8 22.5,67.1 28.9,73.6 30.2,72.3 "/>
<path d="M48.2,65.4c-0.1-0.4-0.3-0.7-0.5-1h-0.1C47.3,64.2,47,64,46.8,64c-0.5-0.1-0.9,0-1.1,0.1h-0.1c-0.3,0.2-0.7,0.5-1.2,0.8
	c-1.1,0.7-1.2,0.8-1.3,0.8c-0.3,0.1-1,0.4-1.8,0.3c-0.5-0.1-1-0.2-1.4-0.6c-0.3-0.2-0.7-0.6-0.9-1.2c-0.2-0.7-0.1-1.3,0-1.7
	c-0.9,0.8-1.4,1.3-1.5,1.4s-0.3,0.2-0.4,0.3c0.2,0.6,0.9,2.4,2.8,3.2c0.4,0.1,1.6,0.6,3,0.2c0.7-0.2,1.4-0.6,2.2-1.1
	c0.2-0.1,0.4-0.2,0.5-0.3c0.3-0.2,0.7-0.4,0.7-0.4c0.1,0,0.2,0.4,0.1,1.1c-0.1,0.7-0.4,1.7-2.2,3.3c-1.5,1.4-2.9,2.2-4.1,2.9
	c-1.6,0.9-3,1.5-3.1,1.6c-0.7,0.3-1.2,0.5-1.6,0.6c-0.6,0.2-1,0.4-1.5,0.7c-1.4,1-2.2,2.1-2.6,2.8c-0.9,1.4-1.4,2.9-1.7,4.5
	c-0.3,1.2-0.6,2.3-1,3.4s-0.7,1.6-1.1,2.2c-0.3,0.4-0.7,0.8-1.2,1.1c-0.3,0.1-0.7,0.1-1-0.1s-0.5-0.6-0.7-1.4
	c-0.3-1.5,0-2.8,0.2-4.1c0.7-3.4,0.7-3.7,0.7-4.1c0.1-1.3,0.2-2.6-0.2-4.1c-0.3-0.9-0.6-1.5-1.3-2.5c-1.1-1.6-2.3-3.3-3.7-4.9
	c-0.7-0.8-0.8-1.4-0.8-2.3c0-1.5,1.9-3.1,2-3.3c0.7-0.4,1.5-0.9,2.3-1.2c0.7-0.3,1.2-0.5,1.7-0.7c0.3-0.1,0.6-0.2,0.9-0.3
	c1.7-0.7,3-1.2,4.1-2.3l0.1-0.2c1-1,1.8-1.8,2.7-3.7c0.2-0.3,0.5-0.5,0.8-0.5h0.1c0.4,0.1,0.6,0.5,0.6,0.5l0.5,1.3l2.6-2.3
	c-0.3,0-1.1,0-1.7-0.5c-0.6-0.6-0.6-1.7-0.1-2.5c0.4-0.8,1-1.5,1.5-2.2c0.6-0.8,1.4-1.6,2.1-2.4c0.2-0.2,0.7-0.9,0.5-1.9
	c-0.1-0.5-0.4-1.1-0.9-1.3c-0.1,0-0.2-0.1-0.3-0.1c-0.2-0.1-0.5-0.1-0.7-0.2c-0.1,0-1-0.2-2.1,0c-1.4,0.3-2.5,1.1-3.3,1.6
	c-0.5,0.4-1.6,1.3-2.9,2.7c-1,1.1-1.6,2.1-2.2,3.1c-0.7,1.2-1,1.8-1.3,2.3c-0.2,0.5-0.4,0.8-0.9,1.5c-0.6,0.9-1.7,2.3-3.4,3.3
	c-0.7,0.4-1.1,0.5-2,0.7c-0.7,0.2-1.6,0.4-3,0.8c-1.6,0.5-2.6,0.8-3.8,1.3c-2.1,0.9-4,1.7-5.7,3.5c-1.9,2-2.5,4.2-2.7,5.1
	c0.2,1.4-0.3,3.3,0,5.8c0.2,1.4,0.7,2.5,1.1,3.7c0.5,1.3,1,2.2,1.5,3c0.7,1.2,1.2,2.1,1.8,2.8c0.6,0.9,1.2,1.8,2.1,2.9
	c0.4,0.5,1,1.3,1.9,2.2c0.2,0.2,0.5,0.5,1.1,1.1l0.1,0.1c0.7,0.7,1,1,1.3,1.3c0.6,0.6,1,1,1.7,1.4c0.7,0.5,1.1,0.8,1.8,1
	c0.6,0.2,1.1,0.2,1.6,0.3c0.1,0,0.3,0,0.4,0c0.6,0,1,0,1.3,0c0.6,0,1-0.1,1.4-0.2c0.5-0.1,0.9-0.4,1.3-0.6c0.5-0.3,0.9-0.6,1.2-0.8
	c0.5-0.4,0.9-0.7,1.3-1.1c0.6-0.6,1-1.2,1.2-1.6c0.4-0.6,0.7-1.2,0.9-1.8c0.2-0.5,0.3-0.8,0.5-1.7l0.1-0.6c0.3-1.3,0.6-2.2,0.9-3.2
	c0.3-0.9,0.4-1.4,0.7-2s0.6-1.3,1.2-1.9c0.6-0.6,1.4-1.1,2.3-1.5c1.5-0.7,2.9-1.4,4.3-2.1c0.7-0.4,1.4-0.7,2.2-1.3
	c0.3-0.2,1-0.7,1.8-1.4c0.7-0.6,1.3-1.2,1.9-1.9c0.6-0.6,1.1-1.4,1.5-2.2c0.2-0.6,0.4-1.1,0.5-1.7C48.2,66.4,48.3,65.9,48.2,65.4z
	 M15.2,85.2l-5.3-5.5l3.3-3.1l5.3,5.5L15.2,85.2z M22.3,79.9l-6.4-6.4l1.3-1.3l6.4,6.4L22.3,79.9z"/>
<path d="M95.1,11.5c0,0.3-0.2,0.5-0.3,0.9c-0.2,0.3-0.3,0.5-0.4,0.8c-0.3,0.4-0.6,0.7-0.8,0.8c-0.5,0.3-0.9,0.5-1.2,0.6
	c-0.4,0.1-0.6,0.2-1,0.2c-0.3,0-0.5-0.1-0.7-0.1c-0.1,0-0.3-0.1-0.4-0.1c-0.3,0-0.5,0-0.8,0.1c-0.4,0.4-0.7,0.8-1,1.3
	c-0.3,0.4-0.5,0.7-0.7,1.1c-0.2,0.3-0.4,0.7-0.7,1.2c-0.6,0.9-0.8,1.3-1.3,1.9c-0.4,0.5-0.8,0.9-1.2,1.4c-0.3,0.3-0.7,0.7-1,1
	l-0.2,0.1l-0.2-0.1c-0.5-0.2-1-0.3-1.5-0.3s-0.8,0.1-1.3,0.3c-0.4,0.1-0.8,0.3-1.1,0.4l-1.4,1.2l0,0c-3.9,3.8-32,31.7-39,38.5l0,0
	c-0.9,0.8-1.4,1.3-1.5,1.4s-0.3,0.2-0.4,0.3c-0.6,0.3-1.2,0.3-1.2,0.3l0,0c-0.4,0-0.9-0.2-1.3-0.5L32.2,62c-0.2-0.2-0.6-0.6-0.6-1.3
	c0-0.9,0.7-1.4,0.9-1.5l3-2.7l2.6-2.3l0,0L75,21.5l0,0c0.2-0.4,0.3-0.9,0.3-1.3s-0.2-0.7-0.4-1c-0.2-0.4-0.4-0.7-0.3-1.2
	s0.4-0.9,0.9-1.3l0,0c0.4-0.2,0.7-0.4,1-0.6c-0.2-0.1-0.3-0.3-0.5-0.4c-0.4,0-0.7,0-1.1,0c-0.4-0.1-0.6-0.3-0.6-0.4
	c-0.2-0.3,0-0.7,0.3-1.4c0.1-0.4,0.3-0.7,0.4-0.9c0.2,0,0.6-0.1,1.1-0.1c0.7,0,1.1,0,1.4,0.3c0.2,0.3,0.1,0.8,0,1
	c-0.1,0.3-0.2,0.5-0.3,0.8c0.1,0.2,0.1,0.3,0.2,0.5c1.1-0.7,2.1-1.3,3.1-1.9c-0.1-0.1-0.3-0.2-0.4-0.4c-0.4,0-0.7,0-1.1,0
	c-0.4-0.1-0.6-0.3-0.6-0.4c-0.2-0.3,0-0.7,0.3-1.4c0.1-0.4,0.3-0.7,0.4-0.9c0.2,0,0.6-0.1,1.1-0.1c0.7,0,1.1,0,1.4,0.3
	c0.2,0.3,0.1,0.8,0,1c-0.1,0.3-0.2,0.5-0.3,0.8c0.1,0.1,0.1,0.3,0.2,0.4c1.1-0.7,2.1-1.3,3-1.8c-0.1-0.1-0.2-0.2-0.4-0.3
	c-0.4,0-0.7,0-1.1,0c-0.4-0.1-0.6-0.3-0.6-0.4c-0.2-0.3,0-0.7,0.3-1.4c0.1-0.4,0.3-0.7,0.4-0.9c0.2,0,0.6-0.1,1.1-0.1
	c0.7,0,1.1,0,1.4,0.3c0.2,0.3,0.1,0.8,0,1c-0.1,0.3-0.2,0.5-0.3,0.8c0.1,0.1,0.1,0.3,0.2,0.4c1.6-0.9,2.7-1.6,3.4-2
	c-0.2-0.1-0.3-0.3-0.4-0.4c-0.4,0-0.7,0-1.1,0C87,8,86.8,7.8,86.8,7.7c-0.2-0.3,0-0.7,0.3-1.4c-0.1,0,0.1-0.3,0.2-0.5
	c0.2,0,0.6-0.1,1.1-0.1c0.7,0,1.1,0,1.4,0.3c0.2,0.3,0.1,0.8,0,1c-0.1,0.3-0.2,0.5-0.3,0.8c0.1,0.2,0.2,0.4,0.2,0.5
	c0.4-0.2,0.7-0.3,1.1-0.4c0.6-0.2,0.9-0.2,1.3-0.1c0.5,0.1,0.8,0.2,1,0.3c0.3,0.2,0.5,0.3,0.6,0.4C93.8,8.8,93.9,8.8,94,9l0.2,0.2
	c0.1,0.1,0.3,0.3,0.5,0.6l0.1,0.1c0.1,0.3,0.2,0.6,0.3,0.9C95.1,10.9,95.1,11.2,95.1,11.5z"/>
</svg>
