<?xml version="1.0" encoding="utf-8"?>
<!-- Generator: Adobe Illustrator 21.0.0, SVG Export Plug-In . SVG Version: 6.00 Build 0)  -->
<svg version="1.1" id="图层_1" xmlns="http://www.w3.org/2000/svg" xmlns:xlink="http://www.w3.org/1999/xlink" x="0px" y="0px"
	 viewBox="0 0 90.3 89.3" style="enable-background:new 0 0 90.3 89.3;" xml:space="preserve">
<title>boss-icons-liny-export</title>
<path d="M42.3,49.8H48c1.4,0,2.5-1.1,2.5-2.5V24.6c0-1.4-1.1-2.5-2.5-2.5s-2.5,1.1-2.5,2.5v20.2h-3.2c-1.4,0-2.5,1.1-2.5,2.5
	S40.9,49.8,42.3,49.8z"/>
<path d="M65,22.1c-1.4,0-2.5,1.1-2.5,2.5v5.7c0,1.4,1.1,2.5,2.5,2.5c1.4,0,2.5-1.1,2.5-2.5v-5.7C67.5,23.2,66.4,22.1,65,22.1z"/>
<path d="M25.2,22.1c-1.4,0-2.5,1.1-2.5,2.5v5.7c0,1.4,1.1,2.5,2.5,2.5s2.5-1.1,2.5-2.5v-5.7C27.7,23.2,26.6,22.1,25.2,22.1z"/>
<path d="M59.3,56.2c-0.4,0-0.9,0.1-1.3,0.3c-0.8,0.4-1.2,1.3-1.2,2.2v3.2H33.4v-3.2c0-1.4-1.1-2.5-2.5-2.5c-1.4,0-2.5,1.1-2.5,2.5
	v2.5c0,0.2,0,0.5,0,0.7c0.1,1.3,0.6,2.5,1.6,3.4c0.6,0.6,1.3,1,2.1,1.3c0.5,0.2,0.9,0.2,1.4,0.3h23.1c0.6,0,1.1-0.1,1.6-0.3
	c2.2-0.7,3.6-2.7,3.6-5v-2.9C61.9,57.3,60.8,56.2,59.3,56.2C59.4,56.2,59.4,56.2,59.3,56.2z"/>
<path d="M88,10.8h-2.7c-0.5,0-0.8-0.4-0.8-0.8V7.5C84.5,6.1,83.4,5,82,5H8.3C6.9,5,5.8,6.1,5.8,7.5V10c0,0.5-0.4,0.8-0.8,0.8H2.2
	C1,11,0,12,0,13.3v62.3c0,1.3,1,2.4,2.2,2.5H5c0.5,0,0.8,0.4,0.8,0.8v2.5c0,1.4,1.1,2.5,2.5,2.5H82c1.4,0,2.5-1.1,2.5-2.5v-2.5
	c0-0.5,0.4-0.8,0.8-0.8H88c1.3-0.1,2.2-1.2,2.2-2.5V13.3C90.2,12,89.3,11,88,10.8z M85.3,73.4c-3,0.1-5.5,2.5-5.5,5.5H10.5
	c-0.1-3-2.5-5.5-5.5-5.5V15.5c3-0.1,5.5-2.5,5.5-5.5h69.2c0.1,3,2.5,5.5,5.5,5.5V73.4z"/>
</svg>
