<svg xmlns="http://www.w3.org/2000/svg" xmlns:xlink="http://www.w3.org/1999/xlink" viewBox="0 0 100 125" version="1.1" x="0px" y="0px"><title>Instrument to instrument wrapped</title><desc>Created with Sketch.</desc><g stroke="none" stroke-width="1" fill="none" fill-rule="evenodd"><path d="M34.3333333,9.5 C34.3333333,9.27346559 34.2222222,8.63060844 34,7.57142857 C35.1521065,5.85714286 35.8187732,5 36,5 C36.1812268,5 36.8478935,5.85714286 38,7.57142857 C37.7777778,8.64987799 37.6666667,9.29273513 37.6666667,9.5 C37.6666667,9.57388893 37.9998964,9.78817464 38.6663558,10.1428571 L38.6663558,10.7857143 L33.3336442,10.7857143 L33.3336442,10.1428571 C34.0001036,9.80334092 34.3333333,9.5890552 34.3333333,9.5 Z M33.3333333,11.75 L38.6666667,11.75 L38.6666667,29.1071429 L33.3333333,29.1071429 L33.3333333,11.75 Z M38,56.4285714 L38,131 L34,131 L34,56.4285714 L38,56.4285714 Z M40,56.1071429 L32,56.1071429 L32,29.4285714 L40,29.4285714 L40,56.1071429 Z" fill="#000000"/><path d="M62.3333333,19.5 C62.3333333,19.2734656 62.2222222,18.6306084 62,17.5714286 C63.1521065,15.8571429 63.8187732,15 64,15 C64.1812268,15 64.8478935,15.8571429 66,17.5714286 C65.7777778,18.649878 65.6666667,19.2927351 65.6666667,19.5 C65.6666667,19.5738889 65.9998964,19.7881746 66.6663558,20.1428571 L66.6663558,20.7857143 L61.3336442,20.7857143 L61.3336442,20.1428571 C62.0001036,19.8033409 62.3333333,19.5890552 62.3333333,19.5 Z M61.3333333,21.75 L66.6666667,21.75 L66.6666667,39.1071429 L61.3333333,39.1071429 L61.3333333,21.75 Z M66,66.4285714 L66,141 L62,141 L62,66.4285714 L66,66.4285714 Z M68,66.1071429 L60,66.1071429 L60,39.4285714 L68,39.4285714 L68,66.1071429 Z" fill="#000000"/><path d="M11,114 L7,114 L7,113 C7,89.2517558 26.2517558,70 50,70 C73.7482442,70 93,89.2517558 93,113 L93,114 L89,114 L89,113 C89,91.4608948 71.5391052,74 50,74 C28.4608948,74 11,91.4608948 11,113 L11,114 Z" fill="#000000" fill-rule="nonzero"/><path d="M15,115 L11,115 L11,114 C11,92.4608948 28.4608948,75 50,75 C71.5391052,75 89,92.4608948 89,114 L89,115 L85,115 L85,114 C85,94.6700338 69.3299662,79 50,79 C30.6700338,79 15,94.6700338 15,114 L15,115 Z" fill="#000000" fill-rule="nonzero"/><path d="M19,116 L15,116 L15,115 C15,95.6700338 30.6700338,80 50,80 C69.3299662,80 85,95.6700338 85,115 L85,116 L81,116 L81,115 C81,97.8791728 67.1208272,84 50,84 C32.8791728,84 19,97.8791728 19,115 L19,116 Z" fill="#000000" fill-rule="nonzero"/></g><text x="0" y="115" fill="#000000" font-size="5px" font-weight="bold" font-family="'Helvetica Neue', Helvetica, Arial-Unicode, Arial, Sans-serif">Created by Joel Wisneski</text><text x="0" y="120" fill="#000000" font-size="5px" font-weight="bold" font-family="'Helvetica Neue', Helvetica, Arial-Unicode, Arial, Sans-serif">from the Noun Project</text></svg>