<?xml version="1.0" encoding="utf-8"?>
<!-- Generator: Adobe Illustrator 21.0.0, SVG Export Plug-In . SVG Version: 6.00 Build 0)  -->
<svg version="1.1" id="图层_1" xmlns="http://www.w3.org/2000/svg" xmlns:xlink="http://www.w3.org/1999/xlink" x="0px" y="0px"
	 viewBox="0 0 100 100" style="enable-background:new 0 0 100 100;" xml:space="preserve">
<g>
	<path d="M50,94.3c-15.2,0-27.6-12.4-27.6-27.6c0-15.2,12.4-27.6,27.6-27.6c15.2,0,27.6,12.4,27.6,27.6C77.6,81.9,65.2,94.3,50,94.3
		z M50,42.6c-13.3,0-24.1,10.8-24.1,24.1C25.8,80,36.7,90.9,50,90.9c13.3,0,24.2-10.8,24.2-24.2C74.2,53.4,63.3,42.6,50,42.6z"/>
	<path d="M23.1,67.7c-0.3,0-0.6-0.1-0.9-0.2L0.8,54.7c-0.8-0.5-1.1-1.5-0.6-2.3l11.7-19.6c0.5-0.8,1.5-1.1,2.3-0.6l21,12.5
		c0.8,0.5,1.1,1.5,0.6,2.3c-0.5,0.8-1.5,1.1-2.3,0.6L14,35.9L4.1,52.6L24,64.5c0.8,0.5,1.1,1.5,0.6,2.3
		C24.3,67.4,23.7,67.7,23.1,67.7z"/>
	<path d="M30.2,51.7c-0.3,0-0.6-0.1-0.9-0.2L9.7,39.8c-0.8-0.5-1.1-1.5-0.6-2.3c0.5-0.8,1.5-1.1,2.3-0.6l19.6,11.7
		c0.8,0.5,1.1,1.5,0.6,2.3C31.4,51.4,30.8,51.7,30.2,51.7z"/>
	<path d="M76.9,67.7c-0.6,0-1.2-0.3-1.5-0.8C74.9,66,75.2,65,76,64.5l19.9-11.9l-10-16.7L66.4,47.5c-0.8,0.5-1.9,0.2-2.3-0.6
		c-0.5-0.8-0.2-1.9,0.6-2.3l21-12.5c0.8-0.5,1.9-0.2,2.3,0.6l11.8,19.6c0.2,0.4,0.3,0.9,0.2,1.3c-0.1,0.4-0.4,0.8-0.8,1.1L77.8,67.4
		C77.5,67.6,77.2,67.7,76.9,67.7z"/>
	<path d="M69.8,51.7c-0.6,0-1.2-0.3-1.5-0.8c-0.5-0.8-0.2-1.9,0.6-2.3l19.6-11.7c0.8-0.5,1.9-0.2,2.3,0.6c0.5,0.8,0.2,1.9-0.6,2.3
		L70.6,51.5C70.4,51.6,70.1,51.7,69.8,51.7z"/>
	<path d="M50,86.6c-4.5,0-8.2-3.7-8.2-8.3c0-4.5,3.7-8.2,8.2-8.2c4.6,0,8.3,3.7,8.3,8.2C58.2,82.9,54.5,86.6,50,86.6z M50,73.5
		c-2.6,0-4.8,2.1-4.8,4.8c0,2.7,2.1,4.8,4.8,4.8c2.7,0,4.8-2.1,4.8-4.8C54.8,75.6,52.6,73.5,50,73.5z"/>
	<path d="M25.4,13.1H2c-0.9,0-1.7-0.8-1.7-1.7S1.1,9.7,2,9.7h23.4c0.9,0,1.7,0.8,1.7,1.7S26.3,13.1,25.4,13.1z"/>
	<path d="M13.7,13.1c-0.9,0-1.7-0.8-1.7-1.7V8.6c0-0.9,0.8-1.7,1.7-1.7c0.9,0,1.7,0.8,1.7,1.7v2.7C15.4,12.3,14.6,13.1,13.7,13.1z"
		/>
	<path d="M25.4,18.6H2c-0.9,0-1.7-0.8-1.7-1.7c0-0.9,0.8-1.7,1.7-1.7h23.4c0.9,0,1.7,0.8,1.7,1.7C27.1,17.9,26.3,18.6,25.4,18.6z"/>
	<path d="M13.7,35.6c-0.9,0-1.7-0.8-1.7-1.7V16.9c0-0.9,0.8-1.7,1.7-1.7c0.9,0,1.7,0.8,1.7,1.7v16.9C15.4,34.8,14.6,35.6,13.7,35.6z
		"/>
	<path d="M13.7,94.3c-0.9,0-1.7-0.8-1.7-1.7V60.5c0-0.9,0.8-1.7,1.7-1.7c0.9,0,1.7,0.8,1.7,1.7v32.1C15.4,93.6,14.6,94.3,13.7,94.3z
		"/>
	<path d="M4.2,94.3c-0.3,0-0.7-0.1-1-0.3c-0.8-0.5-1-1.6-0.4-2.4l9.5-13.8c0.5-0.8,1.6-1,2.4-0.4c0.8,0.5,1,1.6,0.4,2.4L5.6,93.6
		C5.3,94.1,4.8,94.3,4.2,94.3z"/>
	<path d="M23.1,94.3c-0.5,0-1.1-0.3-1.4-0.7l-9.4-13.8c-0.5-0.8-0.3-1.8,0.5-2.4c0.8-0.5,1.8-0.3,2.4,0.5l9.4,13.8
		c0.5,0.8,0.3,1.8-0.5,2.4C23.8,94.2,23.4,94.3,23.1,94.3z"/>
	<path d="M98,13.1H74.6c-0.9,0-1.7-0.8-1.7-1.7s0.8-1.7,1.7-1.7H98c0.9,0,1.7,0.8,1.7,1.7S98.9,13.1,98,13.1z"/>
	<path d="M86.3,13.1c-0.9,0-1.7-0.8-1.7-1.7V8.6c0-0.9,0.8-1.7,1.7-1.7c0.9,0,1.7,0.8,1.7,1.7v2.7C88,12.3,87.3,13.1,86.3,13.1z"/>
	<path d="M98,18.6H74.6c-0.9,0-1.7-0.8-1.7-1.7c0-0.9,0.8-1.7,1.7-1.7H98c0.9,0,1.7,0.8,1.7,1.7C99.7,17.9,98.9,18.6,98,18.6z"/>
	<path d="M86.3,35.6c-0.9,0-1.7-0.8-1.7-1.7V16.9c0-0.9,0.8-1.7,1.7-1.7c0.9,0,1.7,0.8,1.7,1.7v16.9C88,34.8,87.3,35.6,86.3,35.6z"
		/>
	<path d="M86.3,94.3c-0.9,0-1.7-0.8-1.7-1.7V60.5c0-0.9,0.8-1.7,1.7-1.7c0.9,0,1.7,0.8,1.7,1.7v32.1C88,93.6,87.3,94.3,86.3,94.3z"
		/>
	<path d="M76.8,94.3c-0.3,0-0.7-0.1-1-0.3c-0.8-0.5-1-1.6-0.4-2.4l9.5-13.8c0.5-0.8,1.6-1,2.4-0.4c0.8,0.5,1,1.6,0.4,2.4l-9.5,13.8
		C77.9,94.1,77.4,94.3,76.8,94.3z"/>
	<path d="M95.7,94.3c-0.5,0-1.1-0.3-1.4-0.7l-9.4-13.8c-0.5-0.8-0.3-1.8,0.5-2.4c0.8-0.5,1.8-0.3,2.4,0.5l9.4,13.8
		c0.5,0.8,0.3,1.8-0.5,2.4C96.4,94.2,96.1,94.3,95.7,94.3z"/>
	<path d="M30.1,94.3c-0.2,0-0.4,0-0.5-0.1c-0.9-0.3-1.4-1.3-1.1-2.2l2.1-6.3c0.3-0.9,1.3-1.4,2.2-1.1c0.9,0.3,1.4,1.3,1.1,2.2
		l-2.1,6.3C31.5,93.9,30.8,94.3,30.1,94.3z"/>
	<path d="M69.9,94.3c-0.7,0-1.4-0.5-1.6-1.2l-2.1-6.3c-0.3-0.9,0.2-1.9,1.1-2.2c0.9-0.3,1.9,0.2,2.2,1.1l2.1,6.3
		c0.3,0.9-0.2,1.9-1.1,2.2C70.2,94.3,70.1,94.3,69.9,94.3z"/>
	<path d="M50,42.6c-0.9,0-1.7-0.8-1.7-1.7v-9c0-0.9,0.8-1.7,1.7-1.7s1.7,0.8,1.7,1.7v9C51.7,41.8,50.9,42.6,50,42.6z"/>
	<path d="M58,33.6H42c-0.9,0-1.7-0.8-1.7-1.7c0-0.9,0.8-1.7,1.7-1.7h16c0.9,0,1.7,0.8,1.7,1.7C59.7,32.9,58.9,33.6,58,33.6z"/>
</g>
</svg>
