<?xml version="1.0" encoding="utf-8"?>
<!-- Generator: Adobe Illustrator 21.0.0, SVG Export Plug-In . SVG Version: 6.00 Build 0)  -->
<svg version="1.1" id="图层_1" xmlns="http://www.w3.org/2000/svg" xmlns:xlink="http://www.w3.org/1999/xlink" x="0px" y="0px"
	 viewBox="0 0 37.5 36.9" style="enable-background:new 0 0 37.5 36.9;" xml:space="preserve">
<g>
	<path d="M32.6,3.6h-6h-8h-8h-6c-1.1,0-2,0.9-2,2v26c0,1.1,0.9,2,2,2h6h8h8h6c1.1,0,2-0.9,2-2v-26C34.6,4.5,33.7,3.6,32.6,3.6z
		 M5.6,5.6h1c0.6,0,1,0.4,1,1v12c0,0.5,0.4,1,1,1l0,0c0.5,0,1,0.4,1,1v10c0,0.6-0.4,1-1,1h-3c-0.6,0-1-0.4-1-1v-24
		C4.6,6.1,5.1,5.6,5.6,5.6z M12.6,19.6L12.6,19.6c0.6,0,1-0.4,1-1v-12c0-0.5,0.4-1,1-1h0c0.5,0,1,0.4,1,1v12c0,0.5,0.4,1,1,1h0
		c0.5,0,1,0.4,1,1v10c0,0.6-0.4,1-1,1h-4c-0.6,0-1-0.4-1-1v-10C11.6,20.1,12.1,19.6,12.6,19.6z M20.6,19.6L20.6,19.6
		c0.5,0,1-0.4,1-1v-12c0-0.5,0.4-1,1-1h0.1c0.5,0,1,0.4,1,1v12c0,0.5,0.4,1,1,1h0c0.5,0,1,0.4,1,1v10c0,0.6-0.4,1-1,1h-4
		c-0.6,0-1-0.4-1-1v-10C19.6,20.1,20.1,19.6,20.6,19.6z M31.6,31.6h-3c-0.6,0-1-0.4-1-1v-10c0-0.5,0.4-1,1-1l0,0c0.5,0,1-0.4,1-1
		v-12c0-0.6,0.4-1,1-1h1c0.6,0,1,0.4,1,1v24C32.6,31.2,32.2,31.6,31.6,31.6z"/>
</g>
</svg>
