<?xml version="1.0" encoding="utf-8"?>
<!-- Generator: Adobe Illustrator 21.0.0, SVG Export Plug-In . SVG Version: 6.00 Build 0)  -->
<svg version="1.1" id="图层_1" xmlns="http://www.w3.org/2000/svg" xmlns:xlink="http://www.w3.org/1999/xlink" x="0px" y="0px"
	 viewBox="0 0 125 125" style="enable-background:new 0 0 125 125;" xml:space="preserve">
<title>Instrument to instrument wrapped</title>
<desc>Created with Sketch.</desc>
<g>
	<path d="M45,9.5c0-0.2-0.1-0.9-0.3-1.9c1.2-1.7,1.8-2.6,2-2.6s0.8,0.9,2,2.6c-0.2,1.1-0.3,1.7-0.3,1.9c0,0.1,0.3,0.3,1,0.6v0.6H44
		v-0.6C44.7,9.8,45,9.6,45,9.5z M44,11.8h5.3v17.4H44V11.8z M48.7,56.4V131h-4V56.4H48.7z M50.7,56.1h-8V29.4h8V56.1z"/>
	<path d="M73,19.5c0-0.2-0.1-0.9-0.3-1.9c1.2-1.7,1.8-2.6,2-2.6s0.8,0.9,2,2.6c-0.2,1.1-0.3,1.7-0.3,1.9c0,0.1,0.3,0.3,1,0.6v0.6H72
		v-0.6C72.7,19.8,73,19.6,73,19.5z M72,21.8h5.3v17.4H72V21.8z M76.7,66.4V141h-4V66.4H76.7z M78.7,66.1h-8V39.4h8V66.1z"/>
	<path d="M21.7,114h-4v-1c0-23.7,19.3-43,43-43s43,19.3,43,43v1h-4v-1c0-21.5-17.5-39-39-39s-39,17.5-39,39V114z"/>
	<path d="M25.7,115h-4v-1c0-21.5,17.5-39,39-39s39,17.5,39,39v1h-4v-1c0-19.3-15.7-35-35-35s-35,15.7-35,35V115z"/>
	<path d="M29.7,116h-4v-1c0-19.3,15.7-35,35-35s35,15.7,35,35v1h-4v-1c0-17.1-13.9-31-31-31s-31,13.9-31,31V116z"/>
</g>
</svg>
